# xmcd
#
# Track frame offsets: 
#        150
#        21472
#        31466
#        41407
#        52923
#        72018
#        82935
#        94825
#        107219
#        119091
#        141830
#        153768
#        166050
#        178363
#        190176
#        201700
#        214106
#        226437
#        245458
#
# Disc length: 3413 seconds
#
# Revision: 0
# Processed by: cddbd v1.5.2PL0 Copyright (c) Steve Scherf et al.
# Submitted via: ExactAudioCopy v0.99pb5
#
DISCID=0e0d5313
DTITLE=Lightnin' Hopkins - Shinin' moon
DYEAR=2007
DGENRE=Blues
TTITLE0=Don't Wake Me
TTITLE1=Hear Me Talkin'
TTITLE2=Hopkins Sky Hop
TTITLE3=Easy On Your Heels
TTITLE4=Good Times
TTITLE5=Blues For My Cookie
TTITLE6=Shinin' Moon
TTITLE7=Life I Used To Live
TTITLE8=Lightnin's Stomp
TTITLE9=I'll Be Gone
TTITLE10=Don't Think Cause Your Pretty
TTITLE11=Shaggy Dog
TTITLE12=Evil Hearted Woman
TTITLE13=Talk Of The Town
TTITLE14=Lightnin's Boogie
TTITLE15=My Baby's Gone
TTITLE16=Sittin' Down Thinkin'
TTITLE17=Leave Jike Mary Alone
TTITLE18=Notin' But The Blues
EXTD=
EXTT0=
EXTT1=
EXTT2=
EXTT3=
EXTT4=
EXTT5=
EXTT6=
EXTT7=
EXTT8=
EXTT9=
EXTT10=
EXTT11=
EXTT12=
EXTT13=
EXTT14=
EXTT15=
EXTT16=
EXTT17=
EXTT18=
PLAYORDER=
